<svg width="24" height="25" viewBox="0 0 24 25" fill="none" xmlns="http://www.w3.org/2000/svg">
<path d="M11.1843 0.561796L0.131461 13.2966C0.0471909 13.3944 1.36908e-07 13.5191 1.35341e-07 13.6506L9.9767e-08 16.6337C9.67925e-08 16.8831 0.310112 16.9978 0.47191 16.809L10.7191 5.00449L10.7191 24.7303C10.7191 24.8787 10.8404 25 10.9888 25L13.0112 25C13.1596 25 13.2809 24.8787 13.2809 24.7303L13.2809 5.00786L23.5281 16.8124C23.6933 17.0011 24 16.8865 24 16.6371L24 13.5528C24 13.4888 23.9764 13.4247 23.9326 13.3775L12.8157 0.561796C12.7143 0.445103 12.5889 0.35154 12.4482 0.287424C12.3075 0.223307 12.1546 0.190128 12 0.190128C11.8454 0.190128 11.6925 0.223307 11.5518 0.287424C11.4111 0.35154 11.2857 0.445103 11.1843 0.561796Z" fill="white"/>
</svg>
