<svg width="24" height="25" viewBox="0 0 24 25" fill="none" xmlns="http://www.w3.org/2000/svg">
<path d="M12.8157 24.4382L23.8685 11.7034C23.9528 11.6056 24 11.4809 24 11.3494L24 8.36629C24 8.11685 23.6899 8.00225 23.5281 8.19101L13.2809 19.9955L13.2809 0.269662C13.2809 0.121348 13.1596 -4.73851e-07 13.0112 -4.80334e-07L10.9888 -5.68739e-07C10.8404 -5.75222e-07 10.7191 0.121348 10.7191 0.269662L10.7191 19.9921L0.47191 8.18764C0.306741 7.99888 -3.54652e-07 8.11348 -3.65555e-07 8.36292L-5.00373e-07 11.4472C-5.03172e-07 11.5112 0.0235953 11.5753 0.0674147 11.6225L11.1843 24.4382C11.2857 24.5549 11.4111 24.6485 11.5518 24.7126C11.6925 24.7767 11.8454 24.8099 12 24.8099C12.1546 24.8099 12.3075 24.7767 12.4482 24.7126C12.5889 24.6485 12.7143 24.5549 12.8157 24.4382Z" fill="white"/>
</svg>
