<svg width="80" height="80" viewBox="0 0 80 80" fill="none" xmlns="http://www.w3.org/2000/svg">
<path d="M59.5898 44.5728C59.7637 53.6408 56.0119 60.4056 48.3345 64.8672C46.2485 66.055 44.1626 67.2573 42.0767 68.4741C39.9328 69.8647 38.0062 71.6175 36.2969 73.7324C35.6305 72.0521 34.9787 70.3862 34.3413 68.7349C33.1535 65.7798 31.4876 63.1289 29.3437 60.7822C27.8662 59.2757 26.3887 57.7547 24.9111 56.2192C23.6074 54.7127 22.7817 53.1917 22.4341 51.6562C22.2892 51.0189 22.2168 50.396 22.2168 49.7876C22.2168 47.383 23.057 45.5578 24.7373 44.312C24.5924 46.1662 25.2443 47.9334 26.6929 49.6138C27.4172 50.4539 28.8802 51.41 31.082 52.4819C33.4867 53.6698 35.138 54.6548 36.0361 55.437C38.7884 57.8127 40.8309 60.7243 42.1636 64.1719C45.9878 60.2607 48.0882 56.451 48.4648 52.7427C48.4938 52.424 48.5083 52.0763 48.5083 51.6997C48.5083 47.9334 47.784 44.2106 46.3354 40.5313C45.7271 39.0247 44.771 38.3149 43.4673 38.4019C42.8299 38.4308 42.1056 38.6336 41.2944 39.0103C40.2225 39.4738 39.6286 39.7201 39.5127 39.749C39.0202 38.8509 38.18 37.3589 36.9922 35.2729C39.194 33.0132 41.3813 30.7679 43.5542 28.5371C46.0747 25.4951 47.2191 22.6125 46.9873 19.8892C46.9583 19.3966 46.3499 18.6868 45.1621 17.7598C44.0033 16.8037 43.1196 16.3257 42.5112 16.3257C42.3953 16.3257 42.3084 16.3402 42.2505 16.3691C41.7869 16.6009 40.8164 17.3542 39.3389 18.6289C37.8613 19.8747 36.8473 20.8452 36.2969 21.5405C36.2679 22.8153 36.2534 26.5671 36.2534 32.7959C36.2534 34.0706 36.2244 36.3449 36.1665 39.6187C36.1375 42.8634 36.123 44.6886 36.123 45.0942C36.123 48.2811 37.0791 50.6278 38.9912 52.1343C39.4258 52.4819 39.6431 52.7572 39.6431 52.96C39.6431 53.1917 39.2809 53.3945 38.5566 53.5684C37.8034 53.7422 37.0067 53.5973 36.1665 53.1338L29.1699 49.1792C27.5186 48.2521 26.7363 46.9049 26.8232 45.1377C26.7943 45.5143 26.7798 44.341 26.7798 41.6177C26.7798 39.9953 26.7653 38.1556 26.7363 36.0986C26.7074 34.0417 26.6784 31.5501 26.6494 28.624C26.6204 26.0745 26.548 23.2064 26.4321 20.0195C26.4032 19.3822 26.0845 19.1214 25.4761 19.2373L21.8691 19.9326C21.2897 20.0485 21 19.8167 21 19.2373C21 19.0055 21.2173 18.7448 21.6519 18.4551C22.9266 17.7018 25.2733 16.1519 28.6919 13.8052C30.2853 12.7043 32.3423 11.1833 34.8628 9.24219C35.1235 8.98145 35.4857 8.6193 35.9492 8.15576C36.21 7.92399 36.4852 7.82259 36.7749 7.85156C37.0936 7.90951 37.224 8.19922 37.166 8.7207C37.0212 10.1982 36.7894 12.7332 36.4707 16.3257C38.209 14.4136 40.3674 12.4725 42.9458 10.5024C43.6991 9.95199 44.4668 9.77816 45.249 9.98096C46.4368 10.2417 48.0303 10.8211 50.0293 11.7192C50.8695 12.0669 52.2166 12.7332 54.0708 13.7183C55.2297 14.4715 55.7946 16.3836 55.7656 19.4546C55.7077 22.6414 54.2012 25.7703 51.2461 28.8413C50.1452 30.0002 47.8999 31.8254 44.5103 34.3169C47.5522 33.0422 50.377 32.2599 52.9844 31.9702C54.4619 31.7964 55.9105 33.1291 57.3301 35.9683C58.7786 38.8075 59.5319 41.6756 59.5898 44.5728Z" fill="black"/>
</svg>
